<mxfile host="app.diagrams.net" agent="Mozilla/5.0 (Macintosh; Intel Mac OS X 10.15; rv:139.0) Gecko/20100101 Firefox/139.0" version="27.0.6">
  <diagram name="Page-1" id="J98GPp0trTVqpxbkB7I4">
    <mxGraphModel dx="1639" dy="938" grid="1" gridSize="10" guides="1" tooltips="1" connect="1" arrows="1" fold="1" page="1" pageScale="1" pageWidth="1169" pageHeight="827" math="0" shadow="0">
      <root>
        <mxCell id="0" />
        <mxCell id="1" parent="0" />
        <mxCell id="qRkWaUQkQDnQNEdSdrAU-1" value="" style="whiteSpace=wrap;html=1;" parent="1" vertex="1">
          <mxGeometry x="40" y="40" width="1090" height="440" as="geometry" />
        </mxCell>
        <mxCell id="qRkWaUQkQDnQNEdSdrAU-2" value="&lt;b&gt;Re-Occuring&lt;/b&gt;" style="text;html=1;align=left;verticalAlign=middle;whiteSpace=wrap;rounded=0;fontSize=20;" parent="1" vertex="1">
          <mxGeometry x="70" y="75" width="150" height="30" as="geometry" />
        </mxCell>
        <mxCell id="qRkWaUQkQDnQNEdSdrAU-5" value="&lt;font&gt;Monday&lt;/font&gt;" style="rounded=1;whiteSpace=wrap;html=1;fontSize=18;" parent="1" vertex="1">
          <mxGeometry x="70" y="220" width="110" height="40" as="geometry" />
        </mxCell>
        <mxCell id="qRkWaUQkQDnQNEdSdrAU-7" value="&lt;div&gt;Tuesday&lt;/div&gt;" style="rounded=1;whiteSpace=wrap;html=1;fontSize=18;" parent="1" vertex="1">
          <mxGeometry x="190" y="220" width="110" height="40" as="geometry" />
        </mxCell>
        <mxCell id="qRkWaUQkQDnQNEdSdrAU-8" value="Wednesday" style="rounded=1;whiteSpace=wrap;html=1;fontSize=18;" parent="1" vertex="1">
          <mxGeometry x="310" y="220" width="110" height="40" as="geometry" />
        </mxCell>
        <mxCell id="qRkWaUQkQDnQNEdSdrAU-10" value="Thursday" style="rounded=1;whiteSpace=wrap;html=1;fontSize=18;" parent="1" vertex="1">
          <mxGeometry x="430" y="220" width="110" height="40" as="geometry" />
        </mxCell>
        <mxCell id="qRkWaUQkQDnQNEdSdrAU-11" value="Friday" style="rounded=1;whiteSpace=wrap;html=1;fontSize=18;" parent="1" vertex="1">
          <mxGeometry x="550" y="220" width="110" height="40" as="geometry" />
        </mxCell>
        <mxCell id="qRkWaUQkQDnQNEdSdrAU-12" value="Saturday" style="rounded=1;whiteSpace=wrap;html=1;fontSize=18;" parent="1" vertex="1">
          <mxGeometry x="670" y="220" width="110" height="40" as="geometry" />
        </mxCell>
        <mxCell id="qRkWaUQkQDnQNEdSdrAU-13" value="Sunday" style="rounded=1;whiteSpace=wrap;html=1;fontSize=18;fontColor=light-dark(#97D077,#214210);fontStyle=1;strokeColor=#97D077;strokeWidth=2;" parent="1" vertex="1">
          <mxGeometry x="790" y="220" width="110" height="40" as="geometry" />
        </mxCell>
        <mxCell id="qRkWaUQkQDnQNEdSdrAU-17" value="" style="group" parent="1" vertex="1" connectable="0">
          <mxGeometry x="220" y="70" width="110" height="40" as="geometry" />
        </mxCell>
        <mxCell id="qRkWaUQkQDnQNEdSdrAU-15" value="" style="rounded=1;whiteSpace=wrap;html=1;fontSize=18;fillColor=#D5E8D4;" parent="qRkWaUQkQDnQNEdSdrAU-17" vertex="1">
          <mxGeometry width="110" height="40" as="geometry" />
        </mxCell>
        <mxCell id="qRkWaUQkQDnQNEdSdrAU-16" value="" style="ellipse;whiteSpace=wrap;html=1;aspect=fixed;fillColor=#97D077;strokeColor=#719D5A;strokeWidth=2;" parent="qRkWaUQkQDnQNEdSdrAU-17" vertex="1">
          <mxGeometry x="70" y="2.5" width="35" height="35" as="geometry" />
        </mxCell>
        <mxCell id="qRkWaUQkQDnQNEdSdrAU-18" value="&lt;b&gt;Single Import&lt;/b&gt;" style="text;html=1;align=left;verticalAlign=middle;whiteSpace=wrap;rounded=0;fontSize=20;" parent="1" vertex="1">
          <mxGeometry x="70" y="320" width="150" height="30" as="geometry" />
        </mxCell>
        <mxCell id="qRkWaUQkQDnQNEdSdrAU-19" value="" style="group" parent="1" vertex="1" connectable="0">
          <mxGeometry x="220" y="310" width="110" height="40" as="geometry" />
        </mxCell>
        <mxCell id="qRkWaUQkQDnQNEdSdrAU-20" value="" style="rounded=1;whiteSpace=wrap;html=1;fontSize=18;fillColor=#E6E6E6;" parent="qRkWaUQkQDnQNEdSdrAU-19" vertex="1">
          <mxGeometry width="110" height="40" as="geometry" />
        </mxCell>
        <mxCell id="qRkWaUQkQDnQNEdSdrAU-21" value="" style="ellipse;whiteSpace=wrap;html=1;aspect=fixed;fillColor=#FFFFFF;strokeColor=#000000;strokeWidth=2;" parent="qRkWaUQkQDnQNEdSdrAU-19" vertex="1">
          <mxGeometry x="10" y="2.5" width="35" height="35" as="geometry" />
        </mxCell>
        <mxCell id="qRkWaUQkQDnQNEdSdrAU-23" value="" style="group" parent="1" vertex="1" connectable="0">
          <mxGeometry x="70" y="125" width="110" height="60" as="geometry" />
        </mxCell>
        <mxCell id="qRkWaUQkQDnQNEdSdrAU-3" value="&lt;font style=&quot;font-size: 18px;&quot;&gt;02:00&lt;/font&gt;" style="rounded=1;whiteSpace=wrap;html=1;" parent="qRkWaUQkQDnQNEdSdrAU-23" vertex="1">
          <mxGeometry y="20" width="110" height="40" as="geometry" />
        </mxCell>
        <mxCell id="qRkWaUQkQDnQNEdSdrAU-22" value="Time" style="text;html=1;align=center;verticalAlign=top;whiteSpace=wrap;rounded=0;fontSize=16;strokeWidth=4;strokeColor=#FFFFFF;" parent="qRkWaUQkQDnQNEdSdrAU-23" vertex="1">
          <mxGeometry x="10" width="50" height="20" as="geometry" />
        </mxCell>
        <mxCell id="qRkWaUQkQDnQNEdSdrAU-27" value="" style="group" parent="1" vertex="1" connectable="0">
          <mxGeometry x="70" y="375" width="110" height="80" as="geometry" />
        </mxCell>
        <mxCell id="qRkWaUQkQDnQNEdSdrAU-28" value="&lt;font style=&quot;font-size: 18px;&quot;&gt;02:00&lt;/font&gt;" style="rounded=1;whiteSpace=wrap;html=1;" parent="qRkWaUQkQDnQNEdSdrAU-27" vertex="1">
          <mxGeometry y="20" width="110" height="40" as="geometry" />
        </mxCell>
        <mxCell id="qRkWaUQkQDnQNEdSdrAU-29" value="Time" style="text;html=1;align=center;verticalAlign=top;whiteSpace=wrap;rounded=0;fontSize=16;strokeWidth=4;strokeColor=#FFFFFF;" parent="qRkWaUQkQDnQNEdSdrAU-27" vertex="1">
          <mxGeometry x="10" width="50" height="20" as="geometry" />
        </mxCell>
        <mxCell id="qRkWaUQkQDnQNEdSdrAU-40" value="" style="group;fontSize=18;" parent="1" vertex="1" connectable="0">
          <mxGeometry x="220" y="125" width="140" height="60" as="geometry" />
        </mxCell>
        <mxCell id="qRkWaUQkQDnQNEdSdrAU-41" value="&lt;font style=&quot;font-size: 18px;&quot;&gt;Weekly&lt;/font&gt;" style="rounded=1;whiteSpace=wrap;html=1;align=left;spacingLeft=10;" parent="qRkWaUQkQDnQNEdSdrAU-40" vertex="1">
          <mxGeometry y="20" width="140" height="40" as="geometry" />
        </mxCell>
        <mxCell id="qRkWaUQkQDnQNEdSdrAU-42" value="Occurence" style="text;html=1;align=center;verticalAlign=top;whiteSpace=wrap;rounded=0;fontSize=16;strokeWidth=4;strokeColor=#FFFFFF;" parent="qRkWaUQkQDnQNEdSdrAU-40" vertex="1">
          <mxGeometry x="10" width="90" height="20" as="geometry" />
        </mxCell>
        <mxCell id="UMwTd3YOnW7DHSaqjlvr-2" value="" style="whiteSpace=wrap;html=1;dashed=1;dashPattern=8 8;" vertex="1" parent="1">
          <mxGeometry x="440" y="75" width="160" height="110" as="geometry" />
        </mxCell>
        <mxCell id="UMwTd3YOnW7DHSaqjlvr-4" value="Weekly" style="text;html=1;align=left;verticalAlign=middle;whiteSpace=wrap;rounded=0;fontSize=18;spacingLeft=10;" vertex="1" parent="1">
          <mxGeometry x="440" y="75" width="130" height="30" as="geometry" />
        </mxCell>
        <mxCell id="UMwTd3YOnW7DHSaqjlvr-5" value="Monthly" style="text;html=1;align=left;verticalAlign=middle;whiteSpace=wrap;rounded=0;fontSize=18;spacingLeft=10;" vertex="1" parent="1">
          <mxGeometry x="440" y="105" width="130" height="30" as="geometry" />
        </mxCell>
        <mxCell id="UMwTd3YOnW7DHSaqjlvr-6" style="edgeStyle=orthogonalEdgeStyle;rounded=0;orthogonalLoop=1;jettySize=auto;html=1;exitX=1;exitY=0.5;exitDx=0;exitDy=0;entryX=0;entryY=0.75;entryDx=0;entryDy=0;" edge="1" parent="1" source="qRkWaUQkQDnQNEdSdrAU-41" target="UMwTd3YOnW7DHSaqjlvr-4">
          <mxGeometry relative="1" as="geometry" />
        </mxCell>
        <mxCell id="UMwTd3YOnW7DHSaqjlvr-7" value="Yearly" style="text;html=1;align=left;verticalAlign=middle;whiteSpace=wrap;rounded=0;fontSize=18;spacingLeft=10;" vertex="1" parent="1">
          <mxGeometry x="440" y="135" width="130" height="30" as="geometry" />
        </mxCell>
        <mxCell id="qRkWaUQkQDnQNEdSdrAU-25" value="&lt;font style=&quot;font-size: 18px;&quot;&gt;2025-05-20&lt;/font&gt;" style="rounded=1;whiteSpace=wrap;html=1;align=left;spacingLeft=10;" parent="1" vertex="1">
          <mxGeometry x="220" y="395" width="140" height="40" as="geometry" />
        </mxCell>
        <mxCell id="qRkWaUQkQDnQNEdSdrAU-26" value="&lt;span style=&quot;&quot;&gt;Date&lt;/span&gt;" style="text;html=1;align=center;verticalAlign=top;whiteSpace=wrap;rounded=0;fontSize=16;strokeWidth=4;strokeColor=#FFFFFF;labelBackgroundColor=none;labelBorderColor=none;fillColor=default;" parent="1" vertex="1">
          <mxGeometry x="230" y="375" width="50" height="30" as="geometry" />
        </mxCell>
        <mxCell id="qRkWaUQkQDnQNEdSdrAU-39" value="" style="group" parent="1" vertex="1" connectable="0">
          <mxGeometry x="334" y="405" width="20" height="20" as="geometry" />
        </mxCell>
        <mxCell id="qRkWaUQkQDnQNEdSdrAU-35" value="" style="rounded=0;whiteSpace=wrap;html=1;" parent="qRkWaUQkQDnQNEdSdrAU-39" vertex="1">
          <mxGeometry y="6.666666666666666" width="20" height="13.333333333333332" as="geometry" />
        </mxCell>
        <mxCell id="qRkWaUQkQDnQNEdSdrAU-36" value="" style="rounded=0;whiteSpace=wrap;html=1;fillColor=#666666;" parent="qRkWaUQkQDnQNEdSdrAU-39" vertex="1">
          <mxGeometry width="20" height="6.666666666666666" as="geometry" />
        </mxCell>
      </root>
    </mxGraphModel>
  </diagram>
</mxfile>
